<svg xmlns="http://www.w3.org/2000/svg" xmlns:xlink="http://www.w3.org/1999/xlink" viewBox="0 0 553 368"><defs><style>.cls-1,.cls-17{fill:none;}.cls-2{isolation:isolate;}.cls-3{fill:#90e3c6;}.cls-4{fill:#6cd5a3;opacity:0.47;}.cls-10,.cls-32,.cls-37,.cls-4,.cls-7{mix-blend-mode:multiply;}.cls-5{fill:#3c3c3b;}.cls-6{fill:#079181;}.cls-7{fill:#04a095;opacity:0.53;}.cls-8{fill:#037766;}.cls-9{fill:#d45b62;}.cls-10{fill:#8674a9;}.cls-10,.cls-20{opacity:0.2;}.cls-11,.cls-40{fill:#fff;}.cls-12{fill:#e7af33;}.cls-13{fill:#c64b57;}.cls-14{fill:#6f332f;}.cls-15{fill:#b11e14;}.cls-16{fill:#df9636;}.cls-17{stroke:#fff;stroke-miterlimit:10;stroke-width:2px;}.cls-18{fill:#576fbd;}.cls-19{fill:#304787;}.cls-20{fill:#203751;}.cls-21{fill:#342e63;}.cls-22{fill:#ebc00d;}.cls-23{fill:#d78a0e;}.cls-24{fill:#edbb52;}.cls-25{fill:#c66c1a;}.cls-26{fill:#9f9c8c;}.cls-27{fill:#b44e10;}.cls-28{fill:#ce6b00;}.cls-29{fill:#82272e;}.cls-30{fill:#2d2c29;opacity:0.15;}.cls-31{fill:#a7cee8;}.cls-32,.cls-37{fill:#5a287f;}.cls-32{opacity:0.1;}.cls-33{clip-path:url(#clip-path);}.cls-34{fill:#e9e7f2;}.cls-35{fill:#15345e;}.cls-36{fill:#81a0ba;}.cls-37{opacity:0.6;}.cls-38{fill:#ecc75c;}.cls-39{fill:#d39350;}.cls-40{font-size:30.63px;font-family:Arial-BoldMT, Arial;font-weight:700;letter-spacing:0.1em;}.cls-41{letter-spacing:0.01em;}.cls-42{letter-spacing:0.1em;}</style><clipPath id="clip-path"><path class="cls-1" d="M121.4,316.19a11.36,11.36,0,0,0,1.75,3.12v.22a2.67,2.67,0,0,1-.62,0c-2.13-.62-30.91-14-47.15-22.19-5.87-3-10.1-5.23-10.82-6-11.11-11.59-2.72-27,2.8-31.52l13.45,6.47,44.83,21.54s-7.3,8.72-6.35,19A33.27,33.27,0,0,0,121.4,316.19Z"/></clipPath></defs><g class="cls-2"><g id="OBJECTS"><path class="cls-3" d="M101.14,168.39c-.4-4.21-.46-8.81,2-12.22,2.85-3.9,8.43-5,13.1-3.82s8.58,4.42,12,7.85c11.9,11.93,19.54,27.69,23.38,44.11,2.68,11.52,6.34,29.19,3.13,40.89-4.07,14.81-17.84-2.15-23.53-8.51A120.23,120.23,0,0,1,101.14,168.39Z"/><path class="cls-4" d="M107.59,175.24c-.31-3.3-.36-6.92,1.59-9.6,2.24-3.06,6.62-4,10.3-3s6.74,3.47,9.42,6.16c9.36,9.37,15.36,21.76,18.37,34.66,2.12,9.05,5,22.94,2.47,32.12-3.2,11.64-14-1.69-18.49-6.68A94.46,94.46,0,0,1,107.59,175.24Z"/><path class="cls-5" d="M110.28,155.33a1119.3,1119.3,0,0,1,47,107.74.56.56,0,1,1-1.05.4c-10.9-27.27-22.51-54.24-34.62-81l-6.1-13.36-6.16-13.33a.52.52,0,0,1,.25-.69.51.51,0,0,1,.68.24Z"/><path class="cls-5" d="M103.53,168.38a75.64,75.64,0,0,1,14.6,3.46.57.57,0,0,1-.26,1.09,75.3,75.3,0,0,1-14.58-3.55.52.52,0,0,1,.24-1Z"/><path class="cls-5" d="M105.21,178.47a111.77,111.77,0,0,1,17.61,4.87.56.56,0,0,1,.32.73.57.57,0,0,1-.62.36A111.82,111.82,0,0,1,109.26,181c-1.45-.47-2.9-.95-4.33-1.51a.52.52,0,0,1,.28-1Z"/><path class="cls-5" d="M108.1,190.42a154.21,154.21,0,0,1,20.62,5.47.57.57,0,0,1-.29,1.09,150.51,150.51,0,0,1-15.52-3.9c-1.7-.52-3.4-1.06-5.08-1.66a.52.52,0,0,1,.27-1Z"/><path class="cls-5" d="M112,202.27c5.74,1.07,11.41,2.49,17,4.09,1.86.55,3.73,1.1,5.57,1.74a.56.56,0,0,1-.28,1.09c-5.74-1.08-11.39-2.55-17-4.18-1.87-.55-3.73-1.11-5.58-1.75a.51.51,0,0,1,.26-1Z"/><path class="cls-5" d="M118.88,216.4a158.89,158.89,0,0,1,21.27,5.18.56.56,0,0,1-.27,1.09,159.76,159.76,0,0,1-16-3.69c-1.76-.49-3.51-1-5.25-1.58a.52.52,0,0,1,.25-1Z"/><path class="cls-5" d="M128.6,230a93.76,93.76,0,0,1,16.46,3,.57.57,0,0,1-.2,1.11A93.72,93.72,0,0,1,128.42,231a.52.52,0,0,1,.18-1Z"/><path class="cls-5" d="M138.76,241.2a32.2,32.2,0,0,1,9.75,1.43.57.57,0,0,1-.17,1.11,32.42,32.42,0,0,1-9.73-1.52.53.53,0,0,1,.15-1Z"/><path class="cls-5" d="M104.55,160.83a26.66,26.66,0,0,1,8.72,1.93.57.57,0,0,1-.25,1.1,22.67,22.67,0,0,1-4.43-.66,25.22,25.22,0,0,1-4.27-1.36.53.53,0,0,1,.23-1Z"/><path class="cls-6" d="M153.39,277.52A122,122,0,0,0,105,214.21C89.07,203.7,68.66,197,50.88,204c5.58,23.15,17.88,44,37.32,57.78S129.7,279.93,153.39,277.52Z"/><path class="cls-4" d="M144,270.83A99.89,99.89,0,0,0,104.46,219c-13-8.6-29.74-14-44.29-8.37,4.57,18.94,14.63,36,30.53,47.27S124.65,272.8,144,270.83Z"/><path class="cls-5" d="M54.2,206.34C83.34,229.93,111.56,255.46,145,273l6.72,3.36a.35.35,0,1,1-.29.63l-6.8-3.27C120,261.16,98,243.84,76.85,226.2L53.79,206.83a.32.32,0,0,1,.41-.49Z"/><path class="cls-5" d="M66.43,202.63c.53,3.57.81,7.56,1,11.17.06,1.25.11,2.49.11,3.74a.35.35,0,0,1-.7.05,124,124,0,0,1-1.08-14.91.32.32,0,0,1,.64-.05Z"/><path class="cls-5" d="M74.61,203.24c.34,4.93.42,10.4.45,15.36,0,1.71,0,3.42-.09,5.13a.35.35,0,0,1-.7,0c-.4-6.72-.5-13.77-.3-20.49a.32.32,0,0,1,.64,0Z"/><path class="cls-5" d="M82.23,205.18c.1,5.8-.08,12.23-.29,18-.08,2-.18,4-.33,6a.35.35,0,0,1-.37.32.34.34,0,0,1-.32-.34c-.09-7.9.15-16.18.67-24.06a.32.32,0,0,1,.64,0Z"/><path class="cls-5" d="M89.59,207.67c0,8.82-.31,18.52-.91,27.32a.35.35,0,0,1-.7,0q0-3.42.07-6.84c.07-3.4.32-10.26.49-13.66.11-2.27.25-4.55.41-6.82a.32.32,0,0,1,.64,0Z"/><path class="cls-5" d="M97.25,211c-.18,9.57-.67,20.09-1.44,29.63a.35.35,0,0,1-.69,0c0-2.48.1-4.95.19-7.42.14-3.69.52-11.12.75-14.81.16-2.47.34-4.93.55-7.4a.32.32,0,0,1,.64,0Z"/><path class="cls-5" d="M104.4,216.38c-.11,9.68-.52,20.32-1.21,30a.35.35,0,0,1-.7,0c0-6.92.42-15.53.78-22.48.14-2.49.3-5,.49-7.48a.32.32,0,0,1,.64,0Z"/><path class="cls-5" d="M111.33,221.05c0,9.89-.33,20.76-.94,30.63a.35.35,0,0,1-.7,0c0-2.56,0-5.11.08-7.66.07-3.82.33-11.5.5-15.32.11-2.55.26-5.1.42-7.65a.32.32,0,0,1,.64,0Z"/><path class="cls-5" d="M118.28,226.67c-.14,9.58-.59,20.11-1.33,29.66a.35.35,0,0,1-.69,0c0-2.48.08-5,.17-7.43.12-3.69.48-11.13.7-14.83.14-2.47.32-4.94.51-7.4a.32.32,0,0,1,.64,0Z"/><path class="cls-5" d="M125.16,233.37c-.1,8.93-.5,18.76-1.19,27.67a.35.35,0,0,1-.7,0c0-2.31.06-4.62.14-6.93.11-3.45.42-10.39.63-13.83.13-2.31.3-4.61.48-6.91a.32.32,0,0,1,.64,0Z"/><path class="cls-5" d="M131.69,240.75c-.06,5.87-.43,12.38-.81,18.27-.15,2-.3,4.05-.5,6.08a.35.35,0,0,1-.39.31.36.36,0,0,1-.31-.35c0-2,.09-4.07.17-6.1l.29-6.09c.26-4.05.5-8.11.91-12.16a.32.32,0,0,1,.64,0Z"/><path class="cls-5" d="M138.21,249.44c-.11,4.69-.54,9.87-1,14.57-.16,1.61-.33,3.22-.56,4.83a.34.34,0,0,1-.39.3.34.34,0,0,1-.3-.35c.21-6.39.77-13.07,1.58-19.4a.32.32,0,0,1,.64.05Z"/><path class="cls-5" d="M144.07,259.14a95.24,95.24,0,0,1-1.1,13.17.34.34,0,0,1-.4.28.35.35,0,0,1-.29-.34c0-2.21.17-4.41.35-6.6s.43-4.39.8-6.56a.32.32,0,0,1,.64.05Z"/><path class="cls-6" d="M419.49,302.13a84.09,84.09,0,0,1,5.21-28.94c2-5.39,5.13-11,10.55-13.09,4.83-1.85,10.54-.46,15.22-2.67,6.76-3.19,8.1-11.85,10.32-18.93s7.13-14.48,14.6-16.1c8.1-1.76,16.56,3.68,24.61,1.67,4.68-1.17,8.34-4.66,12.08-7.69s8.27-5.83,13.06-5.21,8.8,6.48,6,10.34c-1.15,1.57-3.05,2.38-4.7,3.43a16.69,16.69,0,0,0-7.5,11.62c-.5,3.53.17,7.15-.4,10.67-1.44,8.73-10.14,14.54-18.75,17-3.84,1.08-7.82,1.71-11.51,3.19s-7.21,4-8.7,7.67c-.89,2.18-1,4.59-1.7,6.83a14.43,14.43,0,0,1-14.55,9.76c-3.53-.3-7.5-1.81-10.33.31-2.08,1.55-2.52,4.39-3.72,6.67-1.88,3.59-5.75,5.84-9.73,6.75s-10.85.76-14.93.51a5.7,5.7,0,0,1-3.24-.86A4.69,4.69,0,0,1,419.49,302.13Z"/><path class="cls-7" d="M428.42,295.33a71.23,71.23,0,0,1,5.37-22.51c1.79-4.23,4.38-8.68,8.51-10.47,3.68-1.6,7.85-.72,11.43-2.59,5.18-2.7,6.63-9.43,8.65-15s6-11.43,11.67-12.93c6.1-1.64,12.1,2.26,18.17.42,3.54-1.06,6.44-3.88,9.37-6.35s6.44-4.79,10-4.48,6.2,4.7,3.88,7.78a14.22,14.22,0,0,1-3.66,2.81,15,15,0,0,0-6.18,9.23c-.55,2.74-.24,5.51-.85,8.24-1.52,6.79-8.28,11.58-14.79,13.75a87.08,87.08,0,0,0-8.72,2.86,13.35,13.35,0,0,0-6.85,6.22c-.77,1.71-1,3.58-1.61,5.33-1.69,4.69-6.65,8.22-11.31,8-2.61-.11-5.48-1.13-7.69.6-1.61,1.27-2.1,3.47-3.1,5.27a12.43,12.43,0,0,1-7.58,5.55c-3,.84-8.09,1-11.1.92a3.89,3.89,0,0,1-2.36-.55A3.15,3.15,0,0,1,428.42,295.33Z"/><path class="cls-5" d="M507.51,232.08c-34.64,22-65.17,49.79-94.23,78.59a.39.39,0,0,1-.55,0,.41.41,0,0,1,0-.53c13.37-15.4,28.9-29.46,44.65-42.41a593,593,0,0,1,49.73-36.3.37.37,0,0,1,.53.11.39.39,0,0,1-.11.54Z"/><path class="cls-3" d="M424.54,282.7a128.35,128.35,0,0,0,54.64-63.42c7.36-18.66,9.8-41.09-1.19-57.87-22.59,10.74-41.39,27.89-51.34,50.85S416.93,258.86,424.54,282.7Z"/><path class="cls-4" d="M429.39,271.63a104.94,104.94,0,0,0,44.7-51.88c6-15.26,8-33.61-1-47.34-18.49,8.79-33.86,22.82-42,41.6S423.17,252.13,429.39,271.63Z"/><path class="cls-5" d="M476.29,165.33c-17.92,34.93-38.17,69.76-49,107.72l-2,7.64a.36.36,0,0,1-.45.27.37.37,0,0,1-.26-.44l1.89-7.7c7.62-28,20.69-54.36,34.26-79.9L475.69,165a.33.33,0,0,1,.45-.14.34.34,0,0,1,.15.45Z"/><path class="cls-5" d="M482.74,177.11a130,130,0,0,1-15.08,4.39.37.37,0,0,1-.21-.71,130.58,130.58,0,0,1,15.1-4.33.34.34,0,0,1,.19.65Z"/><path class="cls-5" d="M483.88,185.65c-5,1.41-10.6,2.68-15.7,3.78-1.76.36-3.52.72-5.29,1a.36.36,0,0,1-.42-.3.37.37,0,0,1,.26-.42c6.82-1.86,14-3.49,21-4.74a.34.34,0,0,1,.15.66Z"/><path class="cls-5" d="M483.53,193.9c-8,1.77-16.79,3.41-24.86,4.57a.38.38,0,0,1-.42-.32.37.37,0,0,1,.28-.41c2.06-.46,4.12-.9,6.19-1.3l6.21-1.18,6.23-1.07c2.08-.35,4.16-.66,6.25-.95a.34.34,0,0,1,.12.66Z"/><path class="cls-5" d="M482.56,202c-9.07,1.9-19.11,3.68-28.29,5a.37.37,0,0,1-.12-.73c6.48-1.39,14.61-2.78,21.19-3.85q3.56-.57,7.11-1.05a.34.34,0,0,1,.11.66Z"/><path class="cls-5" d="M480.75,210.61c-9.88,1.89-20.8,3.65-30.77,4.93a.37.37,0,0,1-.12-.73q3.83-.74,7.67-1.4c3.83-.65,11.55-1.87,15.39-2.43,2.57-.37,5.15-.71,7.72-1,.41-.05.53.6.11.67Z"/><path class="cls-5" d="M476.8,219.12c-10,2-21,3.85-31.07,5.22a.37.37,0,0,1-.12-.72q3.87-.78,7.74-1.48c3.87-.69,11.66-2,15.54-2.57q3.9-.6,7.8-1.12a.34.34,0,0,1,.11.67Z"/><path class="cls-5" d="M473.5,227.25c-10.17,2.12-21.41,4.15-31.69,5.65a.37.37,0,0,1-.13-.72c2.63-.56,5.26-1.08,7.89-1.58,3.95-.74,11.9-2.14,15.86-2.79q4-.65,8-1.22a.34.34,0,0,1,.11.66Z"/><path class="cls-5" d="M469.23,235.62c-9.88,1.92-20.8,3.73-30.78,5a.37.37,0,0,1-.12-.73q3.82-.75,7.67-1.43c3.83-.67,11.55-1.91,15.4-2.48,2.57-.39,5.15-.74,7.73-1.07a.34.34,0,0,1,.1.67Z"/><path class="cls-5" d="M463.83,244.14c-9.21,1.82-19.4,3.53-28.71,4.74a.37.37,0,0,1-.12-.72q3.57-.72,7.15-1.36c3.57-.63,10.78-1.8,14.36-2.33q3.6-.54,7.21-1a.34.34,0,0,1,.11.67Z"/><path class="cls-5" d="M457.65,252.44c-8.12,1.56-17.1,3-25.32,3.91a.37.37,0,0,1-.11-.73c5.8-1.15,13.08-2.24,19-3.06q3.18-.44,6.36-.78a.33.33,0,0,1,.1.66Z"/><path class="cls-5" d="M450.12,261c-4.84.89-10.26,1.57-15.18,2.14-1.7.18-3.39.36-5.1.47a.37.37,0,0,1-.39-.34.36.36,0,0,1,.3-.38c6.62-1.16,13.6-2,20.29-2.56a.34.34,0,0,1,.08.67Z"/><path class="cls-5" d="M441.41,269.14a101.2,101.2,0,0,1-13.77,1.72.38.38,0,0,1-.38-.36.36.36,0,0,1,.29-.37c2.27-.47,4.57-.77,6.86-1.06s4.6-.51,6.92-.6a.34.34,0,0,1,.08.67Z"/><rect class="cls-8" x="11.47" y="282.57" width="530.64" height="67.16" rx="32.9"/><path class="cls-9" d="M85.17,142.17s41.61-.43,43.12-25.66S94.44,84.81,77,87.61s-39.24,14.66-30.83,36S92.5,151.87,92.5,151.87Z"/><path class="cls-10" d="M46.13,123.62C54.55,145,92.5,151.87,92.5,151.87l-1.86-2.46c-10.39-2.61-35.13-10.47-41.73-27.2-5.53-14.06,2-24,12.8-29.94C49.5,98,40.13,108.39,46.13,123.62Z"/><circle class="cls-11" cx="109.03" cy="114.84" r="3.5"/><circle class="cls-11" cx="93.88" cy="114.84" r="3.5"/><circle class="cls-11" cx="78.73" cy="114.84" r="3.5"/><circle class="cls-11" cx="63.58" cy="114.84" r="3.5"/><path class="cls-12" d="M438.86,87.59s-31.18-.33-32.31-19.22S431.91,44.62,445,46.72s29.39,11,23.09,27-34.72,21.16-34.72,21.16Z"/><path class="cls-10" d="M468.09,73.7c-6.3,16-34.72,21.15-34.72,21.15L434.76,93c7.78-2,26.31-7.84,31.25-20.37,4.15-10.53-1.5-18-9.59-22.43C465.57,54.49,472.59,62.29,468.09,73.7Z"/><path class="cls-11" d="M423.6,67.12A2.62,2.62,0,1,1,421,64.49,2.62,2.62,0,0,1,423.6,67.12Z"/><path class="cls-11" d="M435,67.12a2.62,2.62,0,1,1-2.62-2.63A2.62,2.62,0,0,1,435,67.12Z"/><path class="cls-11" d="M446.3,67.12a2.62,2.62,0,1,1-2.62-2.63A2.62,2.62,0,0,1,446.3,67.12Z"/><path class="cls-11" d="M457.65,67.12A2.62,2.62,0,1,1,455,64.49,2.63,2.63,0,0,1,457.65,67.12Z"/><path class="cls-9" d="M376,285.11s20.12-125,22.38-131.25c0,0-2.06-.58-1.34-4.36s5.6-2.86,5.6-2.86l2-12.38a3.34,3.34,0,0,1-2.09-4.39c1-3.42,3.61-2.32,3.61-2.32l1.28-7.74s7.47-9.88,32.91-5.69S467.77,130,467.77,130l-1.14,6.89s2.2,1.28,1.83,4.76-3.08,3.13-3.08,3.13l-1.94,11.46s5,1.14,4.83,4.9-2.85,4.24-2.85,4.24L445,295.57Z"/><path class="cls-13" d="M403.55,160.83s51.9,6.87,54.18,8.94-19.35,124.8-19.35,124.8l-55.21-8.37S400.55,179.61,403.55,160.83Z"/><rect class="cls-14" x="407.94" y="167.27" width="10.47" height="12.13" transform="translate(174.89 552.78) rotate(-80.63)"/><rect class="cls-14" x="424.02" y="169.92" width="10.47" height="12.13" transform="matrix(0.16, -0.99, 0.99, 0.16, 185.74, 570.87)"/><rect class="cls-14" x="440.1" y="172.57" width="10.47" height="12.13" transform="translate(196.59 588.96) rotate(-80.63)"/><rect class="cls-14" x="397.25" y="188.37" width="24.88" height="12.13" transform="translate(151.16 567.01) rotate(-80.63)"/><rect class="cls-14" x="413.33" y="191.02" width="24.88" height="12.13" transform="translate(162.01 585.1) rotate(-80.63)"/><rect class="cls-14" x="429.42" y="193.68" width="24.88" height="12.13" transform="translate(172.85 603.19) rotate(-80.63)"/><rect class="cls-14" x="392.6" y="216.58" width="24.88" height="12.13" transform="translate(119.43 586.04) rotate(-80.63)"/><rect class="cls-14" x="408.68" y="219.23" width="24.88" height="12.13" transform="translate(130.27 604.13) rotate(-80.63)"/><rect class="cls-14" x="424.76" y="221.89" width="24.88" height="12.13" transform="translate(141.12 622.22) rotate(-80.63)"/><rect class="cls-14" x="387.94" y="244.79" width="24.88" height="12.13" transform="translate(87.69 605.07) rotate(-80.63)"/><rect class="cls-14" x="404.03" y="247.44" width="24.88" height="12.13" transform="translate(98.54 623.16) rotate(-80.63)"/><rect class="cls-14" x="420.11" y="250.1" width="24.88" height="12.13" transform="translate(109.39 641.25) rotate(-80.63)"/><rect class="cls-14" x="389.83" y="267.45" width="13.63" height="12.13" transform="translate(62.21 620.35) rotate(-80.63)"/><rect class="cls-14" x="405.91" y="270.11" width="13.63" height="12.13" transform="translate(73.05 638.44) rotate(-80.63)"/><rect class="cls-14" x="422" y="272.76" width="13.63" height="12.13" transform="translate(83.9 656.53) rotate(-80.63)"/><rect class="cls-12" x="429.95" y="122.65" width="7.76" height="45.65" transform="translate(219.68 549.83) rotate(-80.63)"/><circle class="cls-15" cx="437.6" cy="125.25" r="4.85" transform="translate(91.34 420.7) rotate(-56.44)"/><rect class="cls-12" x="438.84" y="231.22" width="14.61" height="2.88" transform="translate(143.97 634.98) rotate(-80.63)"/><polygon class="cls-15" points="404.65 134.26 465.38 144.8 465.07 146.69 404.36 136.06 404.65 134.26"/><polygon class="cls-15" points="398.35 153.86 465.42 165.4 465.06 167.7 397.87 155.69 398.35 153.86"/><polygon class="cls-15" points="406.17 127.55 466.63 136.91 466.7 136.48 406.32 126.65 406.17 127.55"/><polygon class="cls-15" points="402.61 146.64 463.44 156.26 463.68 155.1 402.87 145.06 402.61 146.64"/><path class="cls-12" d="M160.47,69.16s201.59-5.85,232.31,0c0,0,6.15,127.43-1.63,167.6,0,0-148.87,6.09-226.45,0C164.7,236.76,153.5,103.11,160.47,69.16Z"/><path class="cls-16" d="M391.15,236.76s-148.87,6.09-226.45,0l-.2-2.56C242.67,240,388.62,234,388.62,234c7.16-36.94,2.54-147.72,1.75-165.25.89.12,1.7.25,2.41.39C392.78,69.16,398.93,196.59,391.15,236.76Z"/><path class="cls-6" d="M168.66,79.38s168.81-5.48,211-3.65c0,0-1.23,140.93,0,151.17,0,0-171.67,1.46-203.22,0C176.45,226.9,167.43,110.42,168.66,79.38Z"/><path class="cls-7" d="M379.67,226.9l-3.4,0c-.93-22,.17-148.54.17-148.54-38.79-1.68-184.52,2.81-207.85,3.55,0-.91,0-1.76.07-2.56,0,0,168.81-5.48,211-3.65C379.67,75.73,378.44,216.66,379.67,226.9Z"/><path class="cls-17" d="M224.63,109.47s10.7-3.82,16,.69,13.75-1.42,13.75-1.42"/><path class="cls-17" d="M309.19,195.67s10.7-3.83,16,.68S339,194.93,339,194.93"/><path class="cls-11" d="M359.41,98.67c.09,11.29-13.67,17-21.66,9a12.79,12.79,0,0,1,0-18.06c8-8,21.8-2.19,21.66,9Zm-.47,0c0-10.69-13.17-16.13-20.67-8.52a12.19,12.19,0,0,0,0,17c7.53,7.61,20.68,2.12,20.67-8.51Z"/><path class="cls-11" d="M357.54,105.33l2,2.52a5.1,5.1,0,0,1,1.34,2.17c0,1.9-2.46,1.83-3.69,1.29a10.85,10.85,0,0,1-2.85-1.69,114.93,114.93,0,0,1-9.7-8.61C341,97.09,337,93.23,334.33,88.52c-.64-1.14-1.57-3.87.69-3.62,1.84.65,3.26,2.13,4.65,3.45l-.36.34a20,20,0,0,0-3.75-2.92c-.42-.24-.94-.37-1.16-.15-1.73,3.7,16.85,20.83,20.4,23.47a7.54,7.54,0,0,0,4.13,1.93c2.36-.12,1.21-1.71.24-2.85l-2-2.54.34-.3Z"/><path class="cls-11" d="M358,93.24c-.78,1.42-3,.48-3.61,2.11a32.59,32.59,0,0,0-1.21,4.18c-.21.76.21,1.23.33,2a21.25,21.25,0,0,1-.1,2.25c.05,1.34,1.14,2.46,2.19,3.46l-.33.37a11.68,11.68,0,0,1-1.65-1.58,4,4,0,0,1-.95-2.21c-.05-.83.18-1.56.07-2.18s-.6-1.58-.33-2.31l.59-2.17c.33-1.42,1-3.44,2.77-3.54.74-.11,1.53-.09,1.83-.61l.4.2Z"/><path class="cls-11" d="M356.8,91.37c-.89.51-1.77.29-2.7.44a6.05,6.05,0,0,0-2.29,1c-5.75,4.78-9.72,2.63-13.59-3l.39-.3c2.05,2.56,4.74,5.64,8.3,5.11,1.63-.26,3-1.48,4.52-2.41a6.3,6.3,0,0,1,2.59-1,8.13,8.13,0,0,0,2.53-.22l.25.38Z"/><path class="cls-11" d="M347.8,111.24c-2.95-2.57-2.78-10.28-7.85-9.17-1.43.41-2.45-.86-3.43-1.62a8.12,8.12,0,0,0-2.08-1.15l.17-.47c1.79.45,2.85,1.68,4.19,2.46.6.24,1.35-.13,2.31-.14,4.81.56,4.4,6.9,7,9.75l-.31.34Z"/><path class="cls-11" d="M233.44,212.67a6.12,6.12,0,0,1,5.68-1.77,1.17,1.17,0,0,1,.73.66,1,1,0,0,1-.18,1,3.41,3.41,0,0,1-1.36.87c-.3.22-4,1.25-3,.29.63-.07,5.18-1.38,3.54-2.19a5.89,5.89,0,0,0-4,.63,4.81,4.81,0,0,0-1.18.77c-.17.18-.44-.09-.27-.27Z"/><path class="cls-11" d="M233.07,215.16a6.08,6.08,0,0,0,2.8,4.64c.34.09.51-.06.5-.49a9.9,9.9,0,0,0-1.8-3.88.22.22,0,0,1,0-.3.23.23,0,0,1,.29,0,9.61,9.61,0,0,1,1.67,2.58c1.26,2.37-.34,3.88-2.22,1.71a6.42,6.42,0,0,1-1.67-4.3.2.2,0,0,1,.39,0Z"/><path class="cls-11" d="M233.92,215.16c.79,1.42,1.61,2.76,2.42,4.18a.21.21,0,0,1-.08.29c-.56.43-3.7-5.26-2.34-4.47Z"/><path class="cls-11" d="M238.78,212.1a39.81,39.81,0,0,1-4.27,1.33.23.23,0,0,1-.26-.16c-.25-.54,5.54-2.25,4.53-1.17Z"/><path class="cls-11" d="M211.35,195.4l2.1-1.7a2.43,2.43,0,0,1,2.9.06,88.64,88.64,0,0,1,11.18,7.74c.71.82,0,2-.27,2.88l-.54-.17c.29-1.23.88-2-.23-2.6-2-1.43-4-2.86-6.06-4.22-1.47-1-3-2-4.48-2.93-.7-.43-1.38-.74-2.09-.19l-2.2,1.54-.31-.41Z"/><path class="cls-11" d="M207.46,194.23c4.25.69,8.07,2.73,11.85,4.67a64.38,64.38,0,0,1,10.53,7.18,38,38,0,0,1,3.57,3.28,2.09,2.09,0,0,1,.31,1.83c-.24,1-.78,2.1-1.09,3a33.52,33.52,0,0,1-1.54,3.8c-.68.74-1.74.45-2.59.56a57.17,57.17,0,0,1-15.87-1.25c-6.09-1.54-12.84-3.38-17-8.48-2.43-3.33-4.16-8.86-.6-12,3.51-2.63,8.22-3,12.39-2.6Zm-.07.53c-5.36-.43-14.89.62-13.56,8.06a13.18,13.18,0,0,0,7.18,9.49c8.83,4.68,19.14,5.93,29,5.36.5-.06.53-.32.71-.77l1.13-3c.27-.84.87-2.12,1.08-2.93.33-1.07-.56-1.57-1.24-2.25A64.55,64.55,0,0,0,219,199.51c-3.65-1.92-7.54-4.11-11.59-4.75Z"/><path class="cls-11" d="M213.29,206.84c-1.63,4.13-7.7,1.78-6.24-2.38,1.71-4.1,7.77-1.77,6.24,2.38Zm-.26-.1a3,3,0,0,0-5.56-2.12,3,3,0,0,0,5.56,2.12Z"/><path class="cls-11" d="M212.54,206.55c-1.18,3-5.63,1.31-4.57-1.74,1.27-3,5.72-1.28,4.57,1.74Zm-.25-.09a2.09,2.09,0,0,0-3.9-1.49,2.09,2.09,0,0,0,3.9,1.49Z"/><path class="cls-11" d="M232.92,212.27c1.31.63,3.49.9,2.87,2.62a1.52,1.52,0,0,1-.3.59.88.88,0,0,1-.74.24,10.55,10.55,0,0,1-2.92-.44l.14-.55c.82.08,1.85.08,2.72.11.16,0,.27-.05.15,0a2.51,2.51,0,0,1,.09-.26c.1-.25.09-.43,0-.47a5.81,5.81,0,0,0-.67-.41c-.54-.31-1.08-.62-1.6-1l.21-.48Z"/><path class="cls-11" d="M221.47,210c-1.63,4.13-7.7,1.78-6.24-2.37,1.7-4.11,7.77-1.78,6.24,2.37Zm-.26-.09a3,3,0,0,0-5.56-2.12,3,3,0,0,0,5.56,2.12Z"/><path class="cls-11" d="M220.63,209.63c-1.18,3-5.63,1.31-4.57-1.74,1.28-3,5.72-1.28,4.57,1.74Zm-.25-.09a2.09,2.09,0,0,0-3.9-1.49,2.09,2.09,0,0,0,3.9,1.49Z"/><path class="cls-11" d="M229.66,213.28c-1.63,4.13-7.7,1.78-6.24-2.37,1.7-4.11,7.77-1.77,6.24,2.37Zm-.26-.09a3,3,0,0,0-5.56-2.12,3,3,0,0,0,5.56,2.12Z"/><path class="cls-11" d="M229,213a2.44,2.44,0,0,1-4.56-1.74A2.44,2.44,0,0,1,229,213Zm-.25-.09a2.09,2.09,0,0,0-3.9-1.49,2.09,2.09,0,0,0,3.9,1.49Z"/><path class="cls-11" d="M199.42,211.53a16.25,16.25,0,0,0,4.75-7.81c.76-2.94,1.45-6.31.19-9.16l.36.24c-3.23,0-6.95.4-9.38,2.71-3.18,3.41-1.43,8.94,1.61,11.9a24.88,24.88,0,0,0,2.47,2.12Zm0,.54c-6.43-3.24-10-13.92-1.61-17.09a18.19,18.19,0,0,1,7.24-1l.1.24c2.16,5.45-.83,14.66-5.73,17.87Z"/><path class="cls-11" d="M189.09,107a2.3,2.3,0,0,1-3.06-3.44,2.08,2.08,0,0,1,3.2.26c.67.9.87,2.49-.14,3.18Zm-.25-.32c1.37-1.34-.73-4.28-2.34-2.63s.57,3.86,2.34,2.63Z"/><path class="cls-11" d="M186.15,106.27a3.24,3.24,0,0,1-.32.31,10.51,10.51,0,0,1-4.44.73c-1.59,0-5.57-.85-3.88-3.13a2.06,2.06,0,0,1,1.13-.58c2.37-.29,4.7.37,7,.93a.22.22,0,0,1-.07.44,7.35,7.35,0,0,1-4.43-1.83c-1.31-1-3.5-4.48-.72-5.07,1.32-.07,2.26,1.05,3.15,1.82a18,18,0,0,1,3,3.75.26.26,0,0,1-.09.35.25.25,0,0,1-.32-.06,41.6,41.6,0,0,1-3.16-3.94c-1-1.34-1.73-3.75.11-4.8,3.21-1.48,4.88,5.87,4.54,8.09a.29.29,0,0,1-.56,0,13.72,13.72,0,0,1-.28-4.77,5.28,5.28,0,0,1,1.35-3.41c1.22-1.15,2.87.31,2.81,1.72a12.9,12.9,0,0,1-2.12,6.83l-.52-.35A26.5,26.5,0,0,1,191,99.9,4.85,4.85,0,0,1,193,98.62c1.18-.42,2.89.37,2.83,1.79s-1.35,2-2.22,2.64a12.59,12.59,0,0,1-4,1.88l-.15-.67c2.25-.33,4.64-.93,6.86-.1,2.05.83,1.7,3.26-.26,3.89a5.63,5.63,0,0,1-2.37.18,11.23,11.23,0,0,1-4.3-1.59.31.31,0,0,1-.11-.43.32.32,0,0,1,.4-.13,35.53,35.53,0,0,1,4.06,2.11c3,1.85,3,4.62-1.08,4.25-2.22-1-3.44-3.14-4.76-5a.28.28,0,0,1,.1-.39.29.29,0,0,1,.35,0,9.64,9.64,0,0,1,2.27,3.66,5.15,5.15,0,0,1,.34,3.28c-.67,1.43-2.4.56-3-.48a9,9,0,0,1-1-6.31.27.27,0,0,1,.31-.21.25.25,0,0,1,.21.22,11.86,11.86,0,0,1-.31,4.71c-.35,1.11-.54,2.51-1.63,3.2-1.45.85-2.51-.92-2.42-2.15,0-2.48,1.78-4.43,3.26-6.16l.22.39a4.74,4.74,0,0,0-1.22,1.65,5.69,5.69,0,0,1-3.27,3.27c-.77.17-1.79.5-2.45-.12a2.23,2.23,0,0,1,.26-2.41c1.32-1.75,3.42-2.62,5.43-3.3a1.08,1.08,0,0,1,.81,0Zm-.39.13c-.09.07-.07.23-.07.23a1,1,0,0,1-.22.08,14.19,14.19,0,0,0-3.58,1.65c-1.07.71-2.53,2-1.89,3.37.4.34,1.43.11,2,0,1.94-.54,2.62-2.49,3.59-4.07.33-.38.42-.66,1-.88a.22.22,0,0,1,.24.35,16.58,16.58,0,0,0-2.68,3.74c-.52,1.17-.87,3.14.33,3.93.56.29,1.25-.18,1.53-.82a12.51,12.51,0,0,0,1-6.63h.52c-.44,2-.1,6.44,2.32,6.89,2-.57-.81-5.95-1.93-6.74l.45-.36a20.35,20.35,0,0,0,2.72,3.53,4.12,4.12,0,0,0,1.69,1.22,3.64,3.64,0,0,0,2-.29c.71-.26.5-.94.16-1.45-1.34-1.72-3.64-2.51-5.57-3.46l.29-.56c1.84,1.06,4,2,6.13,1.33a1.65,1.65,0,0,0,1.21-1.31c.08-1.39-1.91-1.75-3.06-1.7a27,27,0,0,0-4.39.51.35.35,0,0,1-.41-.26.35.35,0,0,1,.25-.4c1.42-.28,7.06-2.83,5.49-4.64-2.36-1.86-4.77,2.5-6.06,4.08-.22.33-.73,0-.51-.35,1-1.53,3.43-7,1-8-.58-.19-1.1.45-1.43,1.09a11.6,11.6,0,0,0-.29,6.73l-.56,0c.09-2.64-.49-6-2.74-7.65-1.09-.41-2.05.91-1.85,2a5.21,5.21,0,0,0,.94,2.17,42.51,42.51,0,0,0,3.11,3.9l-.41.29c-.75-1.33-4.88-7-6.41-4.88a2.26,2.26,0,0,0,.33,2,6.92,6.92,0,0,0,5.57,3.49l-.07.44a19.33,19.33,0,0,0-6.77-.94,1.71,1.71,0,0,0-.91.45c-.88,1,.38,1.83,1.37,2.06a10.39,10.39,0,0,0,6.17-.17c.25-.11.16,0,.41,0Z"/><circle class="cls-12" cx="163.54" cy="62.38" r="41.42"/><path class="cls-16" d="M205,62.38A41.43,41.43,0,0,1,138,95a41.43,41.43,0,0,0,48.09-67.37A41.37,41.37,0,0,1,205,62.38Z"/><circle class="cls-18" cx="163.54" cy="62.38" r="33.12"/><path class="cls-19" d="M164.23,95.5h-.69a33.12,33.12,0,0,1,0-66.24h.69a33.13,33.13,0,0,0,0,66.24Z"/><circle class="cls-11" cx="163.54" cy="62.38" r="4.53"/><path class="cls-11" d="M165.08,63.92H139.31a1.54,1.54,0,1,1,0-3.08H162v-21a1.54,1.54,0,0,1,3.08,0Z"/><path class="cls-11" d="M166.67,29.4a3.14,3.14,0,0,1-6.27,0c1-.1,2.08-.14,3.14-.14S165.65,29.3,166.67,29.4Z"/><path class="cls-11" d="M166.68,95c0,.13,0,.26,0,.39-1,.1-2.07.14-3.12.14s-2.09,0-3.12-.14a2.56,2.56,0,0,1,0-.39,3.15,3.15,0,0,1,6.29,0Z"/><path class="cls-11" d="M196.66,62.38c0,1,0,1.92-.12,2.87h-.15a3.14,3.14,0,1,1,0-6.28h.1C196.6,60.1,196.66,61.23,196.66,62.38Z"/><path class="cls-11" d="M133.83,62.11a3.14,3.14,0,0,1-3.15,3.14h-.14c-.09-1-.12-1.9-.12-2.87,0-1.15.06-2.28.16-3.41h.1A3.15,3.15,0,0,1,133.83,62.11Z"/><ellipse class="cls-20" cx="388.38" cy="304.26" rx="83.25" ry="16.61"/><ellipse class="cls-20" cx="286.24" cy="304.22" rx="64.62" ry="12.89"/><path class="cls-21" d="M362.3,196.32s-2.74-10.29.37-15.18c3.45-5.43,22.24-7.1,27.14-3.64,5.49,3.87,5.68,15.8,5.68,15.8a5,5,0,0,1-4.75.3s0-9.63-3.07-11.75-17.89-.46-19.95,2.08-.6,11.47-.6,11.47A4.89,4.89,0,0,1,362.3,196.32Z"/><path class="cls-11" d="M343.74,202.1A15.17,15.17,0,0,0,339,214.31c.27,5,2.12,19.55,2.66,31.22a66.15,66.15,0,0,1-.28,12.41l2.38,1.59s.34-5,.12-13.68a278.18,278.18,0,0,0-2.5-30.2c-1.35-9.85,3.77-14.45,3.77-14.45l0,0c-.49.3-1,.59-1.39.89Z"/><path class="cls-22" d="M338.78,207.11c-5.49,10.59-.43,24.23-.53,37.43h0a15.49,15.49,0,0,0,3.31,1h.05c-.54-11.67-2.39-26.24-2.66-31.22a15.17,15.17,0,0,1,4.76-12.21l0-.06A14.72,14.72,0,0,0,338.78,207.11Z"/><path class="cls-22" d="M345.13,201.2s-5.12,4.6-3.77,14.45a278.18,278.18,0,0,1,2.5,30.2,36.46,36.46,0,0,0,6.27,0c-1.36-11.43-3-24.61-3.81-31.78-1.15-10.33,2.2-14.23,3.4-15.28a43.18,43.18,0,0,0-4.62,2.37Z"/><path class="cls-23" d="M338.18,246.82c-.46,8.06-7.54,42.09-3.67,48.65,3.74,6.33,16.66,21.55,26.65,23.12-13.33-3.8-8.29-45.45-8.88-53.3-.25-3.39-1.12-10.94-2.15-19.45a36.46,36.46,0,0,1-6.27,0c.22,8.64-.12,13.68-.12,13.68l-2.38-1.59a66.15,66.15,0,0,0,.28-12.41h-.05a15.49,15.49,0,0,1-3.31-1h0C338.25,245.3,338.23,246.06,338.18,246.82Z"/><path class="cls-24" d="M350.13,245.84c1,8.51,1.9,16.06,2.15,19.45.59,7.85-4.45,49.5,8.88,53.3.36.05.71.09,1,.11,10.13.6,76.84-3,83.09-14.6s-4.17-42.58-5.35-54.79c-.4-4.05-1.07-10.32-2.3-17.34-2.51-14.17-6.23-33.39-19.73-39.85-2.88-1.37-8.44-2.89-16.24-2.78l-3.87.1a184.89,184.89,0,0,0-24.56,2.72l-4.83,1a97.7,97.7,0,0,0-18.7,5.67c-1.2,1.05-4.55,4.95-3.4,15.28C347.12,221.23,348.77,234.41,350.13,245.84Z"/><path class="cls-9" d="M377,219.72c0,7.24,6.18,13.1,13.8,13.1s13.8-5.86,13.8-13.1-6.18-13.1-13.8-13.1S377,212.48,377,219.72Z"/><path class="cls-25" d="M388.88,204.76a2.15,2.15,0,0,0-.13.53,4.72,4.72,0,0,0,0,1.14,5.42,5.42,0,0,0,.23,1.11,2.77,2.77,0,0,0,.22.5.37.37,0,0,0,.5.13.41.41,0,0,0,.16-.19,2.73,2.73,0,0,0,.12-.53,4.7,4.7,0,0,0,0-1.14,4.26,4.26,0,0,0-.23-1.11,2.4,2.4,0,0,0-.22-.5.36.36,0,0,0-.51-.12A.38.38,0,0,0,388.88,204.76Z"/><path class="cls-25" d="M385.12,205.82a2.29,2.29,0,0,0,0,.55,4.76,4.76,0,0,0,.22,1.13,4.47,4.47,0,0,0,.47,1.05,3,3,0,0,0,.31.45.37.37,0,0,0,.52,0,.35.35,0,0,0,.12-.22,3.17,3.17,0,0,0,0-.55,6,6,0,0,0-.22-1.13,4.47,4.47,0,0,0-.46-1.05,2.59,2.59,0,0,0-.32-.45.38.38,0,0,0-.53,0A.36.36,0,0,0,385.12,205.82Z"/><path class="cls-25" d="M382.16,207.85a1.84,1.84,0,0,0,0,.47,3.34,3.34,0,0,0,.29.9,3.58,3.58,0,0,0,.53.8,2.16,2.16,0,0,0,.34.31.39.39,0,0,0,.54-.09.36.36,0,0,0,.06-.2,1.77,1.77,0,0,0,0-.46,4.5,4.5,0,0,0-.29-.91,3.28,3.28,0,0,0-.52-.79,1.82,1.82,0,0,0-.35-.32.39.39,0,0,0-.54.11A.32.32,0,0,0,382.16,207.85Z"/><path class="cls-25" d="M379.1,210.37a2.14,2.14,0,0,0,.27.39,3.25,3.25,0,0,0,.75.65,4.06,4.06,0,0,0,.89.44,2.41,2.41,0,0,0,.47.11.37.37,0,0,0,.41-.35.36.36,0,0,0,0-.21,2,2,0,0,0-.28-.39,4,4,0,0,0-.74-.65,4.14,4.14,0,0,0-.89-.45,2.83,2.83,0,0,0-.47-.1.39.39,0,0,0-.41.36A.34.34,0,0,0,379.1,210.37Z"/><path class="cls-25" d="M377.24,213a2.15,2.15,0,0,0,.28.34,3,3,0,0,0,.73.52,2.8,2.8,0,0,0,.84.29,2,2,0,0,0,.44,0,.4.4,0,0,0,.36-.42.34.34,0,0,0-.05-.17,1.74,1.74,0,0,0-.28-.34,3,3,0,0,0-.73-.52,2.59,2.59,0,0,0-.84-.3,2,2,0,0,0-.44,0,.4.4,0,0,0-.36.44A1,1,0,0,0,377.24,213Z"/><path class="cls-25" d="M378.72,216.71a2,2,0,0,0-.41-.22,3.58,3.58,0,0,0-.95-.23,3.33,3.33,0,0,0-1,0,2.1,2.1,0,0,0-.46.12.39.39,0,0,0-.2.5.35.35,0,0,0,.13.16,2.25,2.25,0,0,0,.42.22,3.8,3.8,0,0,0,.94.23,3.43,3.43,0,0,0,1,0,1.64,1.64,0,0,0,.45-.13.38.38,0,0,0,.19-.51A.3.3,0,0,0,378.72,216.71Z"/><path class="cls-25" d="M378,219.89a1.71,1.71,0,0,0-.45-.09,3.47,3.47,0,0,0-.95,0,3.88,3.88,0,0,0-.91.3,2.4,2.4,0,0,0-.39.24.39.39,0,0,0,0,.55.36.36,0,0,0,.16.11,1.85,1.85,0,0,0,.45.09,3.54,3.54,0,0,0,1.86-.33,2,2,0,0,0,.39-.25.38.38,0,0,0,0-.55A.46.46,0,0,0,378,219.89Z"/><path class="cls-25" d="M378.52,222.53a2.12,2.12,0,0,0-.53,0,4.36,4.36,0,0,0-1.07.24,4.66,4.66,0,0,0-1,.48,2.5,2.5,0,0,0-.42.32.38.38,0,0,0,0,.53.35.35,0,0,0,.21.1,2.53,2.53,0,0,0,.53,0,5,5,0,0,0,1.08-.23,4.81,4.81,0,0,0,1-.47,2.87,2.87,0,0,0,.42-.33.38.38,0,0,0,0-.53A.35.35,0,0,0,378.52,222.53Z"/><path class="cls-25" d="M379.63,225.87a2,2,0,0,0-.45,0,2.77,2.77,0,0,0-.86.3,3.11,3.11,0,0,0-.74.52,2,2,0,0,0-.29.34.39.39,0,0,0,.12.54.41.41,0,0,0,.18,0,1.62,1.62,0,0,0,.44,0,3.47,3.47,0,0,0,.87-.3,3.1,3.1,0,0,0,.75-.52,1.74,1.74,0,0,0,.28-.34.39.39,0,0,0-.14-.54A.52.52,0,0,0,379.63,225.87Z"/><path class="cls-25" d="M381.53,228a2,2,0,0,0-.43.16,3.08,3.08,0,0,0-.76.56,3.82,3.82,0,0,0-.6.74,2.45,2.45,0,0,0-.19.42.38.38,0,0,0,.26.48.46.46,0,0,0,.2,0,2.16,2.16,0,0,0,.43-.18,3.47,3.47,0,0,0,.77-.55,3.31,3.31,0,0,0,.6-.74,2.45,2.45,0,0,0,.19-.42.4.4,0,0,0-.28-.48A.31.31,0,0,0,381.53,228Z"/><path class="cls-25" d="M383.84,229.82a2,2,0,0,0-.32.32,3.44,3.44,0,0,0-.46.81,3.79,3.79,0,0,0-.22.9,1.84,1.84,0,0,0,0,.45.4.4,0,0,0,.45.33.42.42,0,0,0,.18-.08,2.23,2.23,0,0,0,.31-.32,3.83,3.83,0,0,0,.46-.81,3.41,3.41,0,0,0,.23-.9,2.14,2.14,0,0,0,0-.45.4.4,0,0,0-.46-.32A.39.39,0,0,0,383.84,229.82Z"/><path class="cls-25" d="M386.3,230.77a2,2,0,0,0-.25.36,2.78,2.78,0,0,0-.29.83,2.92,2.92,0,0,0,0,.87,2,2,0,0,0,.08.43.41.41,0,0,0,.51.23.56.56,0,0,0,.15-.1,1.69,1.69,0,0,0,.24-.36,3,3,0,0,0,.3-.83,2.65,2.65,0,0,0,.05-.87,1.68,1.68,0,0,0-.09-.43.41.41,0,0,0-.52-.22A.42.42,0,0,0,386.3,230.77Z"/><path class="cls-25" d="M388.68,231.73a1.25,1.25,0,0,0-.18.36,2.32,2.32,0,0,0-.12.78,2.38,2.38,0,0,0,.13.79,1.67,1.67,0,0,0,.17.36.4.4,0,0,0,.56.1.52.52,0,0,0,.11-.1,2.51,2.51,0,0,0,.17-.36,3,3,0,0,0,.13-.79,2.32,2.32,0,0,0-.13-.78,1.41,1.41,0,0,0-.17-.36.43.43,0,0,0-.58-.09A.38.38,0,0,0,388.68,231.73Z"/><path class="cls-25" d="M391.19,231.29a2.39,2.39,0,0,0,.08.54,4.82,4.82,0,0,0,.4,1.08,5,5,0,0,0,.63,1,2.56,2.56,0,0,0,.38.39.37.37,0,0,0,.52-.06.35.35,0,0,0,.08-.24,2.46,2.46,0,0,0-.08-.54,5.29,5.29,0,0,0-.39-1.08,5.43,5.43,0,0,0-.63-1,2.51,2.51,0,0,0-.39-.38.37.37,0,0,0-.52.07A.4.4,0,0,0,391.19,231.29Z"/><path class="cls-25" d="M394.05,231.13a2,2,0,0,0,0,.49,4.07,4.07,0,0,0,.15,1,4,4,0,0,0,.4.95,2.3,2.3,0,0,0,.29.41.38.38,0,0,0,.64-.18,2.07,2.07,0,0,0,0-.5,4,4,0,0,0-.15-1,4.08,4.08,0,0,0-.39-1,2,2,0,0,0-.29-.4.39.39,0,0,0-.55,0A.44.44,0,0,0,394.05,231.13Z"/><path class="cls-25" d="M397.15,230a2.54,2.54,0,0,0,0,.5,3.65,3.65,0,0,0,.34,1,4,4,0,0,0,.56.87,2,2,0,0,0,.35.34.37.37,0,0,0,.53-.08.31.31,0,0,0,.07-.21,2.11,2.11,0,0,0-.05-.49,4.12,4.12,0,0,0-.32-1,4.21,4.21,0,0,0-.56-.87,1.85,1.85,0,0,0-.36-.34.38.38,0,0,0-.53.09A.37.37,0,0,0,397.15,230Z"/><path class="cls-25" d="M399.36,228.74a1.23,1.23,0,0,0,.06.4,2.12,2.12,0,0,0,.34.72,2.5,2.5,0,0,0,.55.57,1.45,1.45,0,0,0,.34.2.41.41,0,0,0,.55-.38,1.64,1.64,0,0,0-.06-.39,2.59,2.59,0,0,0-.34-.72,2.54,2.54,0,0,0-.54-.58,1.55,1.55,0,0,0-.35-.19.41.41,0,0,0-.53.25A.5.5,0,0,0,399.36,228.74Z"/><path class="cls-25" d="M400.79,226.61a1.92,1.92,0,0,0,.18.43,3.67,3.67,0,0,0,.6.77,3.52,3.52,0,0,0,.77.59,1.92,1.92,0,0,0,.43.19.39.39,0,0,0,.48-.26.5.5,0,0,0,0-.21,2.73,2.73,0,0,0-.19-.43,4.28,4.28,0,0,0-.59-.77,3.59,3.59,0,0,0-.77-.6,2.1,2.1,0,0,0-.44-.18.38.38,0,0,0-.47.27A.34.34,0,0,0,400.79,226.61Z"/><path class="cls-25" d="M402.42,225a1.46,1.46,0,0,0,.28.26,2,2,0,0,0,.68.32,2.26,2.26,0,0,0,.75.08,1.37,1.37,0,0,0,.38-.07.41.41,0,0,0,.24-.53.24.24,0,0,0-.06-.11,1.46,1.46,0,0,0-.28-.26,2.53,2.53,0,0,0-.68-.33,2.24,2.24,0,0,0-.75-.08,1.24,1.24,0,0,0-.37.07.42.42,0,0,0-.24.55A.47.47,0,0,0,402.42,225Z"/><path class="cls-25" d="M406.48,222.08a1.91,1.91,0,0,0-.37-.29,3.18,3.18,0,0,0-.89-.39,3.45,3.45,0,0,0-1-.15,1.86,1.86,0,0,0-.47,0,.38.38,0,0,0-.29.46.4.4,0,0,0,.1.18,2.15,2.15,0,0,0,.37.28,3.8,3.8,0,0,0,1.84.56,2.14,2.14,0,0,0,.47-.05.38.38,0,0,0,.28-.47A.35.35,0,0,0,406.48,222.08Z"/><path class="cls-25" d="M407,217.8a2,2,0,0,0-.47-.16,3.66,3.66,0,0,0-1-.09,4.28,4.28,0,0,0-1,.16,2,2,0,0,0-.46.19.37.37,0,0,0-.14.51.49.49,0,0,0,.16.16,2.36,2.36,0,0,0,.47.15,4.44,4.44,0,0,0,2-.06,2,2,0,0,0,.46-.19.39.39,0,0,0,.13-.53A.34.34,0,0,0,407,217.8Z"/><path class="cls-25" d="M405.29,214.24a1.54,1.54,0,0,0-.43,0,2.83,2.83,0,0,0-.86.15,3.16,3.16,0,0,0-.78.4,1.88,1.88,0,0,0-.32.28.41.41,0,0,0,.06.56.3.3,0,0,0,.16.08,2.14,2.14,0,0,0,.42,0,3.62,3.62,0,0,0,.86-.15,3.15,3.15,0,0,0,.78-.39,2.19,2.19,0,0,0,.32-.29.42.42,0,0,0-.07-.57A.37.37,0,0,0,405.29,214.24Z"/><path class="cls-25" d="M403.77,210.45a2.1,2.1,0,0,0-.47.22,4.32,4.32,0,0,0-.84.66,5.13,5.13,0,0,0-.66.84,3,3,0,0,0-.22.46.39.39,0,0,0,.24.48.49.49,0,0,0,.24,0,3,3,0,0,0,.46-.22,5.59,5.59,0,0,0,.84-.66,4.64,4.64,0,0,0,.66-.84,2.1,2.1,0,0,0,.22-.47.38.38,0,0,0-.25-.47A.41.41,0,0,0,403.77,210.45Z"/><path class="cls-25" d="M401.47,207.88a2.17,2.17,0,0,0-.45.24,3.89,3.89,0,0,0-.81.7,4.73,4.73,0,0,0-.62.87,2.63,2.63,0,0,0-.2.47.37.37,0,0,0,.26.46.3.3,0,0,0,.23,0,1.92,1.92,0,0,0,.45-.24,4.16,4.16,0,0,0,.81-.7,4.07,4.07,0,0,0,.63-.86,2.88,2.88,0,0,0,.2-.48.38.38,0,0,0-.28-.46A.33.33,0,0,0,401.47,207.88Z"/><path class="cls-25" d="M398.45,206.35a2.13,2.13,0,0,0-.39.34,4.45,4.45,0,0,0-.62.86,5.06,5.06,0,0,0-.4,1,3,3,0,0,0-.08.5.37.37,0,0,0,.36.39.33.33,0,0,0,.22-.06,2.31,2.31,0,0,0,.38-.34,4.08,4.08,0,0,0,.63-.86,3.9,3.9,0,0,0,.4-1,2,2,0,0,0,.08-.5.38.38,0,0,0-.37-.39A.47.47,0,0,0,398.45,206.35Z"/><path class="cls-25" d="M395.84,205.81a2,2,0,0,0-.29.3,3,3,0,0,0-.39.74,3.4,3.4,0,0,0-.15.83,2,2,0,0,0,0,.41.4.4,0,0,0,.48.3.36.36,0,0,0,.15-.08,2,2,0,0,0,.29-.3,2.85,2.85,0,0,0,.39-.74,2.63,2.63,0,0,0,.16-.82,2.14,2.14,0,0,0,0-.42.41.41,0,0,0-.5-.28A.35.35,0,0,0,395.84,205.81Z"/><path class="cls-25" d="M392.85,205a1.9,1.9,0,0,0-.22.42,3.41,3.41,0,0,0-.23.94,3.81,3.81,0,0,0,0,1,1.9,1.9,0,0,0,.12.45.38.38,0,0,0,.51.2.4.4,0,0,0,.16-.13,2.3,2.3,0,0,0,.21-.41,4,4,0,0,0,.23-1,3.36,3.36,0,0,0,0-1,1.8,1.8,0,0,0-.13-.46.39.39,0,0,0-.51-.19A.44.44,0,0,0,392.85,205Z"/><path class="cls-26" d="M333.41,260.38c-.07.07-1.13,1.11.61,4.36.83,1.59,1.23,2.39,1.83,2.33s7.94-7.24,7.94-7.24l-.1-1.25s-7.29,7.5-8,7.21-2.74-4.3-2.22-5.38Z"/><path class="cls-11" d="M333.48,260.41c-.52,1.08,1.56,5.09,2.22,5.38s8-7.21,8-7.21l-1.83-1.23s-8.05,2.66-8.29,2.92A.42.42,0,0,0,333.48,260.41Z"/><path class="cls-21" d="M369.15,196.32s-2.74-10.29.37-15.18c3.45-5.43,22.24-7.1,27.14-3.64,5.49,3.87,5.68,15.8,5.68,15.8l-4.75.3s0-9.63-3.07-11.75-17.89-.46-19.95,2.08-.6,11.47-.6,11.47Z"/><path class="cls-23" d="M403.38,190.79c.75.14,1,6.3.72,6.79-.69,1.09-6.55,1.78-7.05.8s-.43-7.07,0-7.33C397.8,190.6,402,190.54,403.38,190.79Z"/><path class="cls-23" d="M374.72,194.8c.72.3,1.34,6.89.84,7.22s-5.84,1.64-6.47.65-1.27-6.75-.86-7.07C368.94,195,373.52,194.31,374.72,194.8Z"/><path class="cls-27" d="M369.92,255c-2.24,1.13-3.8,4.42-4.15,8.29-.2,2.3.19,7.16.81,14.55s1.28,21.93,1.53,24.93,4.09,5.57,8.62,6.4l.88.14v-.1c-6.64-1.23-4-12.57-5.56-25.63-.06-.51-.13-1.06-.21-1.63-.86-6.38-2.55-15.93-2.9-19.69-.48-5.34,2.07-7.3,2.86-7.78A8.85,8.85,0,0,0,369.92,255Z"/><path class="cls-23" d="M371.81,254.49c-.79.48-3.34,2.44-2.86,7.78.35,3.76,2,13.31,2.9,19.69,26.47,3.94,61.88-9,61.88-9l.39-.07c-1.72-10.15-4.12-19.58-5.88-21.57-4.81-5.45-19.31-1.23-26.66-.26C395.17,251.93,377.88,253.29,371.81,254.49Z"/><path class="cls-28" d="M371.85,282c.08.57.15,1.12.21,1.63,1.57,13.06-1.08,24.4,5.56,25.63v.1c15.47,2.27,53.89-4.85,57.38-8.24,2.33-2.27,1.24-15.76-.86-28.17h0l-.39.07S398.32,285.9,371.85,282Z"/><path class="cls-29" d="M392.39,279.62c1,1,1.71,8.49,1,9.38-1.19,1.41-6.49,1.51-6.47.52.07-4.77-1-8.85-.3-9.68S390.75,278.05,392.39,279.62Z"/><path class="cls-21" d="M392.92,279.19c1,1,1.71,8.5,1,9.38-1.19,1.42-6.49,1.52-6.47.53.07-4.77-1-8.86-.3-9.68S391.28,277.63,392.92,279.19Z"/><path class="cls-29" d="M422.09,273.32c1.25.82,2.23,8.58,1.61,9.61-1,1.64-6.47,2.68-6.63,1.67-.75-4.84-1.53-9.06-1-10S420.12,272,422.09,273.32Z"/><path class="cls-21" d="M422.34,273c1.18.8,2.15,8.33,1.56,9.33-.94,1.59-6.14,2.58-6.3,1.6-.73-4.71-1.48-8.8-1-9.73S420.46,271.68,422.34,273Z"/><ellipse class="cls-20" cx="147.88" cy="299.01" rx="103.36" ry="20.62"/><polygon class="cls-30" points="157.51 245.61 239.22 272.24 237.12 287.92 246.44 305.97 133.06 276.09 131.64 247.52 157.51 245.61"/><path class="cls-31" d="M241,303.9,121.4,316.19a33.27,33.27,0,0,1-2.11-9.42c-1-10.25,6.35-19,6.35-19s94.71-6.53,113.63-9.56v0s-2.36,14.56.8,23.51A15,15,0,0,0,241,303.9Z"/><path class="cls-32" d="M126.28,287.73l-.64.06s-7.3,8.73-6.35,19a33.27,33.27,0,0,0,2.11,9.42l2-.46C121.08,308.17,122.4,297.81,126.28,287.73Z"/><path class="cls-11" d="M240.08,301.78c-3.16-8.95-.8-23.51-.8-23.51v0c-16.4,2.63-89.69,7.88-109,9.23a48,48,0,0,0-2.81,28.1L241,303.9A15,15,0,0,1,240.08,301.78Z"/><path class="cls-19" d="M121.4,316.19a11.36,11.36,0,0,0,1.75,3.12v.22a2.67,2.67,0,0,1-.62,0c-2.13-.62-30.91-14-47.15-22.19-5.87-3-10.1-5.23-10.82-6-11.11-11.59-2.72-27,2.8-31.52l13.45,6.47,44.83,21.54s-7.3,8.72-6.35,19A33.27,33.27,0,0,0,121.4,316.19Z"/><path class="cls-14" d="M240.27,301.71s6.95,3.65,6.17,4.26c-14.19,3.3-113.65,13.62-123.29,13.56v-.23a11.17,11.17,0,0,1-1.75-3.11L241,303.9a15,15,0,0,1-.91-2.12Z"/><path class="cls-9" d="M242.58,277.35c0,.24-1.18.54-3.31.88-18.92,3-113.63,9.56-113.63,9.56L80.82,266.25l-13.45-6.47c2.26-1.85,82.86-9.66,87-10.15C154.34,249.63,242.48,275,242.58,277.35Z"/><g class="cls-33"><polygon class="cls-34" points="116.39 276.18 61.24 293.91 61.97 299.33 117.78 280.67 116.39 276.18"/><polygon class="cls-34" points="66.47 258.44 105.39 320.65 110.09 315.66 72.09 254.22 66.47 258.44"/><polygon class="cls-9" points="116.66 276.64 64.14 293.84 64.68 297.83 117.78 279.81 116.66 276.64"/><polygon class="cls-9" points="67.36 257.37 105.11 317.89 108.49 315.85 70.9 254.9 67.36 257.37"/><polygon class="cls-34" points="130.05 312.36 131.69 305.76 95.28 287.2 102.92 250.61 92.05 244.18 84.58 282.78 54.55 267.03 53.05 273.56 83.31 289.36 79.31 311.16 89.5 317.15 93.77 293.92 130.05 312.36"/><polygon class="cls-9" points="123.27 307.03 124.09 303.33 93.65 287.91 100.31 256.74 92.23 251.96 85.52 284.64 54.41 268.71 53.56 272.5 84.85 288.47 80.48 312.07 88.06 316.51 92.93 291.69 123.27 307.03"/></g><path class="cls-35" d="M67.44,259.63,70,260.78c1.6.74,3.92,1.76,6.66,3.05s6,2.75,9.38,4.39l10.71,5.11,10.68,5.19,9.28,4.59,6.54,3.31,2.48,1.25a.13.13,0,0,1,0,.17.11.11,0,0,1-.16.06s-.93-.41-2.54-1.15l-6.66-3L107,279.33l-10.73-5.09L85.6,269.07c-3.41-1.65-6.57-3.24-9.29-4.58s-5-2.51-6.54-3.3l-2.48-1.26a.16.16,0,0,1-.07-.22A.16.16,0,0,1,67.44,259.63Z"/><path class="cls-36" d="M132.23,293.39l16.32-.73c2.45-.1,5.11-.15,7.91-.33l8.82-.44,9.42-.71,9.71-.87c6.51-.58,13-1.19,19.13-1.8l16.64-1.91L232,285.39l4.48-.43a.25.25,0,0,1,.27.23.24.24,0,0,1-.21.27l-4.46.57-11.78,1.37L203.59,289l-19.1,2.05-9.72.93-9.43.76-8.83.55c-2.81.18-5.47.24-7.92.35-4.9.19-9,.22-11.86.24s-4.49,0-4.49,0a.25.25,0,0,1-.25-.25A.26.26,0,0,1,132.23,293.39Z"/><path class="cls-36" d="M129.52,297.78l16.6-.82c5-.19,10.79-.51,17-.8,3.11-.14,6.32-.41,9.58-.62l9.9-.67,9.88-.83c3.26-.31,6.48-.49,9.57-.88L211,292c2.83-.37,5.52-.67,8-1l11.91-1.78,4.52-.63h0a.25.25,0,0,1,.07.49l-4.5.78-11.91,1.93c-2.47.36-5.17.59-8,.92l-8.94,1c-3.09.4-6.3.64-9.56,1l-9.88,1-9.9.74c-3.27.22-6.48.5-9.59.66l-9,.54c-2.85.19-5.55.28-8,.39-5,.22-9.15.29-12.06.32h-4.57a.25.25,0,0,1-.25-.25A.25.25,0,0,1,129.52,297.78Z"/><path class="cls-36" d="M128.25,308.53l4.65-.32c2.95-.2,7.17-.49,12.24-.76,2.53-.12,5.27-.33,8.17-.5l9.13-.55c3.17-.19,6.42-.54,9.74-.82l10.06-.88,19.78-2,17.23-2,12.2-1.25,4.64-.43a.25.25,0,0,1,.27.23.25.25,0,0,1-.22.27l-4.62.58-12.19,1.38-17.26,1.74-19.75,2.25-10.06,1c-3.32.29-6.59.65-9.75.86l-9.13.66c-2.91.19-5.65.4-8.19.53l-6.92.3-5.34.19-4.66.08a.25.25,0,0,1-.25-.25A.25.25,0,0,1,128.25,308.53Z"/><path class="cls-36" d="M139.65,303.19s5.93-.56,14.84-1.25l15.22-1.14c2.78-.2,5.66-.49,8.58-.74l8.85-.8,8.84-.86c2.92-.32,5.8-.54,8.56-.91l8-1.07c2.54-.35,4.94-.64,7.15-1l10.68-1.53,4.06-.53h0a.25.25,0,0,1,.28.21.26.26,0,0,1-.21.28l-4,.68-10.68,1.68c-2.21.32-4.62.55-7.16.86l-8,.93c-2.77.37-5.65.65-8.56,1l-8.84,1-8.85.86c-2.92.27-5.79.57-8.58.79l-8,.71c-2.55.23-5,.4-7.2.56-4.45.32-8.18.51-10.78.61l-4.1.14a.25.25,0,0,1-.26-.24A.26.26,0,0,1,139.65,303.19Z"/><path class="cls-31" d="M241.71,269,134.86,280a29.58,29.58,0,0,1-1.88-8.41c-.85-9.17,5.67-17,5.67-17s84.61-5.83,101.52-8.54v0s-2.11,13,.72,21A13.56,13.56,0,0,0,241.71,269Z"/><path class="cls-32" d="M139.22,254.59l-.57,0s-6.52,7.8-5.67,17a29.58,29.58,0,0,0,1.88,8.41l1.79-.41C134.57,272.86,135.75,263.59,139.22,254.59Z"/><path class="cls-11" d="M240.9,267.14c-2.83-8-.72-21-.72-21v0c-14.65,2.35-80.13,7-97.35,8.25a42.88,42.88,0,0,0-2.51,25.11L241.71,269A13.56,13.56,0,0,1,240.9,267.14Z"/><path class="cls-19" d="M134.86,280a10.28,10.28,0,0,0,1.56,2.79V283a2.3,2.3,0,0,1-.55,0c-1.91-.55-27.62-12.5-42.13-19.82-5.24-2.65-9-4.68-9.67-5.36-9.93-10.36-2.43-24.14,2.51-28.17l12,5.78,40.06,19.25s-6.53,7.79-5.68,17A29.6,29.6,0,0,0,134.86,280Z"/><path class="cls-19" d="M241.06,267.08s6.22,3.26,5.52,3.81C233.9,273.84,145,283.06,136.42,283v-.2a9.86,9.86,0,0,1-1.56-2.78l106.85-11a13.56,13.56,0,0,1-.81-1.9Z"/><path class="cls-18" d="M243.13,245.32c0,.21-1,.48-3,.78-16.91,2.71-101.52,8.54-101.52,8.54L98.6,235.4l-12-5.78c2-1.66,74-8.63,77.71-9.07C164.29,220.55,243,243.19,243.13,245.32Z"/><polygon class="cls-11" points="111.95 226.04 132.1 234.33 186.46 227.02 204.63 232.43 142.43 240.69 165.59 252.77 138.65 254.65 86.58 229.62 111.95 226.04"/><polygon class="cls-9" points="107.92 226.5 130.23 236.16 190.59 228.24 200.99 231.33 135.79 239.65 162.49 253.08 138.65 254.65 86.58 229.62 107.92 226.5"/><path class="cls-35" d="M86.64,229.48l2.26,1c1.44.66,3.51,1.57,6,2.73s5.32,2.46,8.37,3.92l9.58,4.57,9.53,4.64,8.3,4.1,5.84,2.95,2.22,1.12a.13.13,0,0,1,.05.15.12.12,0,0,1-.15.06l-2.26-1-6-2.72L122,247.09l-9.58-4.55-9.55-4.62c-3.05-1.47-5.87-2.9-8.3-4.09s-4.43-2.24-5.84-3l-2.22-1.12a.16.16,0,0,1-.06-.21A.15.15,0,0,1,86.64,229.48Z"/><path class="cls-11" d="M142.43,240.69l5.92,3.09L233.12,247s9.49-1,10-1.69-5.71-2.52-5.71-2.52L152,239.42Z"/><path class="cls-9" d="M142.43,240.69l3.17,1.79,92.3,3.94s4.86-.63,5.23-1.1-2.82-1.53-2.82-1.53l-92.09-3.71Z"/><polygon class="cls-11" points="129.2 233.13 160.06 220.99 164.29 220.56 167.24 221.41 137.03 233.66 132.1 234.33 129.2 233.13"/><polygon class="cls-9" points="130.67 233.74 161.96 220.8 164.29 220.56 165.9 221.02 134.12 234.05 132.1 234.33 130.67 233.74"/><path class="cls-36" d="M144.53,259.65l14.59-.65c2.19-.09,4.56-.14,7.06-.3l7.88-.39,8.42-.64,8.68-.78c5.82-.51,11.63-1,17.08-1.6l14.88-1.7,10.53-1.09,4-.38a.23.23,0,0,1,0,.45l-4,.51-10.52,1.21-14.91,1.46-17.07,1.83-8.68.83-8.42.68-7.89.5c-2.51.16-4.89.21-7.08.31-4.38.17-8,.2-10.59.21s-4,0-4,0a.23.23,0,0,1-.22-.23A.23.23,0,0,1,144.53,259.65Z"/><path class="cls-36" d="M142.12,263.58l14.83-.74c4.45-.17,9.64-.46,15.2-.72,2.78-.12,5.65-.36,8.56-.55l8.84-.6,8.84-.74c2.9-.27,5.78-.44,8.54-.79l8-1c2.53-.33,4.92-.59,7.12-.92l10.65-1.6,4-.56h0a.22.22,0,0,1,.25.19.22.22,0,0,1-.18.25l-4,.7-10.64,1.72c-2.21.32-4.61.53-7.15.83l-8,.87c-2.76.36-5.63.57-8.54.87l-8.83.87-8.85.66c-2.91.2-5.78.45-8.57.59l-8,.49c-2.54.16-5,.25-7.19.35-4.45.19-8.17.25-10.77.28h-4.08a.22.22,0,0,1-.23-.22A.22.22,0,0,1,142.12,263.58Z"/><path class="cls-36" d="M141,273.17l4.15-.28c2.64-.18,6.41-.43,10.93-.68,2.27-.1,4.72-.29,7.31-.45l8.16-.48c2.82-.18,5.73-.49,8.7-.74l9-.79,17.68-1.8,15.39-1.78,10.91-1.11,4.14-.38a.21.21,0,0,1,.24.2.23.23,0,0,1-.19.24l-4.13.51-10.89,1.24-15.42,1.55-17.65,2-9,.85c-3,.26-5.89.58-8.72.77l-8.15.59c-2.6.17-5.05.36-7.32.47l-6.18.28-4.77.16-4.16.07a.22.22,0,0,1-.23-.22A.23.23,0,0,1,141,273.17Z"/><path class="cls-36" d="M151.16,268.41s5.31-.51,13.26-1.13l13.6-1c2.49-.18,5-.44,7.66-.66l7.91-.71,7.91-.78c2.6-.28,5.17-.48,7.64-.81l7.13-.95c2.27-.32,4.41-.58,6.39-.88l9.54-1.36,3.63-.48h0a.22.22,0,0,1,.25.19.23.23,0,0,1-.19.25l-3.61.61-9.54,1.5c-2,.28-4.13.49-6.4.77l-7.15.82c-2.47.34-5,.58-7.64.89l-7.9.91-7.91.76c-2.61.24-5.17.51-7.66.71l-7.17.63c-2.28.21-4.44.36-6.43.5-4,.29-7.31.46-9.64.55l-3.66.12a.22.22,0,0,1-.23-.21A.23.23,0,0,1,151.16,268.41Z"/><path class="cls-19" d="M336.24,285.74s-2.06,16-31.51,23.63-45.82-4.05-45.82-4.05l-2-31.77c20.53,2,38.13-6.13,40.77-6.76,2.24-.54,15.5,2.36,27.12-5.74l.21.31Z"/><path class="cls-37" d="M325.4,262.16l-.37-.8-.21-.31c-11.62,8.1-24.88,5.2-27.12,5.74-2.64.63-20.24,8.78-40.77,6.76l.35,5.58c13.82,2.95,37.22,4.82,43.79,3.19S317.17,270,325.4,262.16Z"/><path class="cls-18" d="M256.93,273.55c-22.84-2.25-45.9-5-45-5.83,15.32-13.81,62.72-38.67,67-40.43,5.1-2.11,79.36,4.46,81.64,6,1.37.9-18.41,15.73-35.7,27.78-11.62,8.1-22.14,14.95-24.38,15.49C297.8,277.17,277.46,275.57,256.93,273.55Z"/><path class="cls-19" d="M284.92,252.9c-2.89.76-5.28-.65-5.83-2.72s1-4,3.86-4.78,5.67.31,6.21,2.37S287.81,252.14,284.92,252.9Z"/><path class="cls-18" d="M284.29,250.79c-2.47.65-4.8-.07-5.21-1.62s1.27-3.32,3.75-4,4.8.08,5.21,1.62S286.77,250.14,284.29,250.79Z"/><path class="cls-38" d="M243.5,284.33a3.29,3.29,0,0,0,.73-2.5,2.71,2.71,0,0,0-5.16,1.64s-4.24,2.34-7.52,9c-.29.58.84,1.26,1.13,1.34s2.88-3.31,3.71-4c0,0-3.21,4.72-3,4.93a11.9,11.9,0,0,0,1.72.76s3.71-7.1,3.92-7.89c0,0-3.55,8.54-3.27,8.78a8.34,8.34,0,0,0,1.79.65,33.78,33.78,0,0,0,1.66-3.8s-.32,2.66-.51,3.56l1.49-.12a52,52,0,0,0,1.74-6.18l-.28,6.12,2.35-.71S247.48,286.94,243.5,284.33Z"/><path class="cls-39" d="M238.36,283.32l.95.26,1,.26a9.3,9.3,0,0,0,1.1.24,5.25,5.25,0,0,0,1.09.14,4.69,4.69,0,0,0,.93,0,2.89,2.89,0,0,0,.62-.14l.24-.08.06,0a.27.27,0,0,1,.33.19.26.26,0,0,1-.08.28l-.25.19a3,3,0,0,1-.73.37,4.67,4.67,0,0,1-1.13.19,6.74,6.74,0,0,1-1.26-.09,8.75,8.75,0,0,1-2.19-.74,5.63,5.63,0,0,1-.9-.55.28.28,0,0,1,.25-.48Z"/><path class="cls-39" d="M283.19,248.26s-3.25,1.1-8,3.12a120.21,120.21,0,0,0-16.77,8.55,56.73,56.73,0,0,0-8,6,29.4,29.4,0,0,0-3.15,3.31,21.1,21.1,0,0,0-1.25,1.7c-.36.56-.68,1.13-1,1.69a38.21,38.21,0,0,0-2.23,5.74c-.42,1.43-.6,2.26-.6,2.26a.27.27,0,0,1-.32.21.26.26,0,0,1-.21-.31s.14-.86.5-2.34a31.68,31.68,0,0,1,2.06-5.95,20.73,20.73,0,0,1,1-1.83,18,18,0,0,1,1.29-1.77,31.24,31.24,0,0,1,3.22-3.44,53.82,53.82,0,0,1,8.15-6.11,108.79,108.79,0,0,1,17-8.44c4.81-1.89,8.12-2.9,8.12-2.9a.27.27,0,1,1,.16.52Z"/></g><g id="TEXTS"><text class="cls-40" transform="translate(212.79 143.91) scale(0.9 1)">SH<tspan class="cls-41" x="48.67" y="0">AY</tspan><tspan x="91.73" y="0">AN</tspan><tspan class="cls-42"><tspan x="-21.86" y="36.75">INSTITUTE</tspan></tspan></text></g></g></svg>